<svg width="158" height="60" viewBox="0 0 158 60" fill="none" xmlns="http://www.w3.org/2000/svg">
<path d="M29.6225 1.60573C30.0017 0.911796 30.9983 0.911796 31.3775 1.60573L37.836 13.4239C38.0415 13.7999 38.4637 14.0032 38.8857 13.9294L52.1524 11.6104C52.9314 11.4742 53.5527 12.2534 53.2467 12.9825L48.0336 25.4005C47.8678 25.7956 47.9721 26.2524 48.2929 26.5364L58.3776 35.4628C58.9698 35.9869 58.748 36.9585 57.9871 37.1738L45.0281 40.8406C44.6158 40.9573 44.3236 41.3236 44.3016 41.7515L43.6104 55.2016C43.5698 55.9914 42.672 56.4238 42.0292 55.9631L31.0825 48.1175C30.7343 47.8679 30.2657 47.8679 29.9175 48.1175L18.9708 55.9631C18.328 56.4238 17.4302 55.9914 17.3896 55.2016L16.6984 41.7515C16.6764 41.3236 16.3842 40.9573 15.9719 40.8406L3.0129 37.1738C2.25198 36.9585 2.03022 35.9869 2.62237 35.4628L12.7071 26.5364C13.0279 26.2524 13.1322 25.7956 12.9664 25.4005L7.75334 12.9825C7.44725 12.2534 8.0686 11.4742 8.84758 11.6104L22.1143 13.9294C22.5363 14.0032 22.9585 13.7999 23.164 13.4239L29.6225 1.60573Z" fill="white"/>
<path d="M73.0824 43V16.8182H77.8253V39.0241H89.3565V43H73.0824ZM101.834 43.3835C99.9162 43.3835 98.2543 42.9616 96.848 42.1179C95.4418 41.2741 94.3509 40.0937 93.5753 38.5767C92.8082 37.0597 92.4247 35.2869 92.4247 33.2585C92.4247 31.2301 92.8082 29.4531 93.5753 27.9276C94.3509 26.402 95.4418 25.2173 96.848 24.3736C98.2543 23.5298 99.9162 23.108 101.834 23.108C103.751 23.108 105.413 23.5298 106.82 24.3736C108.226 25.2173 109.313 26.402 110.08 27.9276C110.855 29.4531 111.243 31.2301 111.243 33.2585C111.243 35.2869 110.855 37.0597 110.08 38.5767C109.313 40.0937 108.226 41.2741 106.82 42.1179C105.413 42.9616 103.751 43.3835 101.834 43.3835ZM101.859 39.6761C102.899 39.6761 103.768 39.3906 104.467 38.8196C105.166 38.2401 105.686 37.4645 106.027 36.4929C106.376 35.5213 106.551 34.4389 106.551 33.2457C106.551 32.044 106.376 30.9574 106.027 29.9858C105.686 29.0057 105.166 28.2259 104.467 27.6463C103.768 27.0668 102.899 26.777 101.859 26.777C100.794 26.777 99.9077 27.0668 99.2003 27.6463C98.5014 28.2259 97.9773 29.0057 97.6278 29.9858C97.2869 30.9574 97.1165 32.044 97.1165 33.2457C97.1165 34.4389 97.2869 35.5213 97.6278 36.4929C97.9773 37.4645 98.5014 38.2401 99.2003 38.8196C99.9077 39.3906 100.794 39.6761 101.859 39.6761ZM123.711 50.7727C122.049 50.7727 120.621 50.5469 119.428 50.0952C118.235 49.652 117.276 49.0554 116.551 48.3054C115.827 47.5554 115.324 46.7244 115.043 45.8125L119.211 44.8026C119.398 45.1861 119.671 45.5653 120.029 45.9403C120.387 46.3239 120.868 46.6392 121.473 46.8864C122.087 47.142 122.858 47.2699 123.787 47.2699C125.1 47.2699 126.186 46.9503 127.047 46.3111C127.908 45.6804 128.338 44.6406 128.338 43.1918V39.4716H128.108C127.87 39.9489 127.52 40.4389 127.06 40.9418C126.608 41.4446 126.007 41.8665 125.257 42.2074C124.516 42.5483 123.583 42.7188 122.458 42.7188C120.949 42.7188 119.581 42.3651 118.354 41.6577C117.135 40.9418 116.164 39.8764 115.439 38.4616C114.723 37.0384 114.365 35.2571 114.365 33.1179C114.365 30.9616 114.723 29.142 115.439 27.6591C116.164 26.1676 117.14 25.0384 118.367 24.2713C119.594 23.4957 120.962 23.108 122.471 23.108C123.621 23.108 124.567 23.304 125.309 23.696C126.059 24.0795 126.655 24.544 127.098 25.0895C127.542 25.6264 127.878 26.1335 128.108 26.6108H128.364V23.3636H132.928V43.3196C132.928 44.9986 132.527 46.3878 131.726 47.4872C130.925 48.5866 129.83 49.4091 128.441 49.9545C127.051 50.5 125.475 50.7727 123.711 50.7727ZM123.749 39.0881C124.729 39.0881 125.564 38.8494 126.255 38.3722C126.945 37.8949 127.469 37.2088 127.827 36.3139C128.185 35.419 128.364 34.3452 128.364 33.0923C128.364 31.8565 128.185 30.7741 127.827 29.8452C127.478 28.9162 126.958 28.196 126.267 27.6847C125.586 27.1648 124.746 26.9048 123.749 26.9048C122.718 26.9048 121.857 27.1733 121.167 27.7102C120.476 28.2472 119.956 28.9844 119.607 29.9219C119.257 30.8509 119.083 31.9077 119.083 33.0923C119.083 34.294 119.257 35.3466 119.607 36.25C119.965 37.1449 120.489 37.8437 121.179 38.3466C121.878 38.8409 122.735 39.0881 123.749 39.0881ZM146.236 43.3835C144.319 43.3835 142.657 42.9616 141.25 42.1179C139.844 41.2741 138.753 40.0937 137.978 38.5767C137.211 37.0597 136.827 35.2869 136.827 33.2585C136.827 31.2301 137.211 29.4531 137.978 27.9276C138.753 26.402 139.844 25.2173 141.25 24.3736C142.657 23.5298 144.319 23.108 146.236 23.108C148.154 23.108 149.816 23.5298 151.222 24.3736C152.628 25.2173 153.715 26.402 154.482 27.9276C155.257 29.4531 155.645 31.2301 155.645 33.2585C155.645 35.2869 155.257 37.0597 154.482 38.5767C153.715 40.0937 152.628 41.2741 151.222 42.1179C149.816 42.9616 148.154 43.3835 146.236 43.3835ZM146.262 39.6761C147.301 39.6761 148.171 39.3906 148.87 38.8196C149.569 38.2401 150.088 37.4645 150.429 36.4929C150.779 35.5213 150.953 34.4389 150.953 33.2457C150.953 32.044 150.779 30.9574 150.429 29.9858C150.088 29.0057 149.569 28.2259 148.87 27.6463C148.171 27.0668 147.301 26.777 146.262 26.777C145.196 26.777 144.31 27.0668 143.603 27.6463C142.904 28.2259 142.38 29.0057 142.03 29.9858C141.689 30.9574 141.519 32.044 141.519 33.2457C141.519 34.4389 141.689 35.5213 142.03 36.4929C142.38 37.4645 142.904 38.2401 143.603 38.8196C144.31 39.3906 145.196 39.6761 146.262 39.6761Z" fill="white"/>
</svg>
