<svg width="1440" height="131" viewBox="0 0 1440 131" fill="none" xmlns="http://www.w3.org/2000/svg">
<path fill-rule="evenodd" clip-rule="evenodd" d="M0 77.4379L80.4 66.168C159.6 54.8982 320.4 32.3585 480 23.9061C639.6 15.4537 800.4 21.0886 960 35.176C1119.6 49.2633 1280.4 71.803 1359.6 83.0728L1440 94.3426V128.152H1359.6C1280.4 128.152 1119.6 128.152 960 128.152C800.4 128.152 639.6 128.152 480 128.152C320.4 128.152 159.6 128.152 80.4 128.152H0V77.4379Z" fill="#90CAF9"/>
<path fill-rule="evenodd" clip-rule="evenodd" d="M0 81.8601L60 66.4294C120 50.9987 240 20.1373 360 20.1373C480 20.1373 600 50.9987 720 53.5705C840 56.1423 960 30.4244 1080 22.7091C1200 14.9937 1320 25.2809 1380 30.4244L1440 35.568V128.152H1380C1320 128.152 1200 128.152 1080 128.152C960 128.152 840 128.152 720 128.152C600 128.152 480 128.152 360 128.152C240 128.152 120 128.152 60 128.152H0V81.8601Z" fill="#2196F3"/>
<path fill-rule="evenodd" clip-rule="evenodd" d="M0 0L120 19.1042C240 38.2083 480 76.4167 720 81.875C960 87.3333 1200 60.0417 1320 46.3958L1440 32.75V131H1320C1200 131 960 131 720 131C480 131 240 131 120 131H0V0Z" fill="#0D47A1"/>
</svg>
